ISO-10303-21;
HEADER;
/* Generated by software containing ST-Developer
 * from STEP Tools, Inc. (www.steptools.com) 
 */

FILE_DESCRIPTION(
/* description */ (''),
/* implementation_level */ '2;1');

FILE_NAME(
/* name */ 'P360 Detachable Base - no collar.step',
/* time_stamp */ '2026-08-20T22:03:10-04:00',
/* author */ (''),
/* organization */ (''),
/* preprocessor_version */ 'ST-DEVELOPER v20.1',
/* originating_system */ 'Autodesk Translation Framework v15.8.0.0',
/* authorisation */ '');

FILE_SCHEMA (('AUTOMOTIVE_DESIGN { 1 0 10303 214 3 1 1 }'));
ENDSEC;

DATA;
#10=MECHANICAL_DESIGN_GEOMETRIC_PRESENTATION_REPRESENTATION('',(#13),#476);
#11=SHAPE_REPRESENTATION_RELATIONSHIP('SRR','None',#483,#12);
#12=ADVANCED_BREP_SHAPE_REPRESENTATION('',(#14),#475);
#13=STYLED_ITEM('',(#493),#14);
#14=MANIFOLD_SOLID_BREP('Body3',#259);
#15=CYLINDRICAL_SURFACE('',#278,5.5);
#16=CYLINDRICAL_SURFACE('',#287,4.7);
#17=CYLINDRICAL_SURFACE('',#290,3.89999989494681);
#18=CYLINDRICAL_SURFACE('',#296,4.7);
#19=CYLINDRICAL_SURFACE('',#302,4.225);
#20=CYLINDRICAL_SURFACE('',#304,4.225);
#21=CYLINDRICAL_SURFACE('',#308,3.425);
#22=FACE_BOUND('',#53,.T.);
#23=FACE_BOUND('',#57,.T.);
#24=FACE_BOUND('',#63,.T.);
#25=FACE_BOUND('',#65,.T.);
#26=PLANE('',#276);
#27=PLANE('',#282);
#28=PLANE('',#289);
#29=PLANE('',#293);
#30=PLANE('',#295);
#31=PLANE('',#301);
#32=FACE_OUTER_BOUND('',#51,.T.);
#33=FACE_OUTER_BOUND('',#52,.T.);
#34=FACE_OUTER_BOUND('',#54,.T.);
#35=FACE_OUTER_BOUND('',#55,.T.);
#36=FACE_OUTER_BOUND('',#56,.T.);
#37=FACE_OUTER_BOUND('',#58,.T.);
#38=FACE_OUTER_BOUND('',#59,.T.);
#39=FACE_OUTER_BOUND('',#60,.T.);
#40=FACE_OUTER_BOUND('',#61,.T.);
#41=FACE_OUTER_BOUND('',#62,.T.);
#42=FACE_OUTER_BOUND('',#64,.T.);
#43=FACE_OUTER_BOUND('',#66,.T.);
#44=FACE_OUTER_BOUND('',#67,.T.);
#45=FACE_OUTER_BOUND('',#68,.T.);
#46=FACE_OUTER_BOUND('',#69,.T.);
#47=FACE_OUTER_BOUND('',#70,.T.);
#48=FACE_OUTER_BOUND('',#71,.T.);
#49=FACE_OUTER_BOUND('',#72,.T.);
#50=FACE_OUTER_BOUND('',#73,.T.);
#51=EDGE_LOOP('',(#170,#171,#172,#173));
#52=EDGE_LOOP('',(#174));
#53=EDGE_LOOP('',(#175));
#54=EDGE_LOOP('',(#176,#177,#178,#179));
#55=EDGE_LOOP('',(#180,#181,#182,#183));
#56=EDGE_LOOP('',(#184));
#57=EDGE_LOOP('',(#185));
#58=EDGE_LOOP('',(#186,#187,#188,#189));
#59=EDGE_LOOP('',(#190,#191,#192,#193));
#60=EDGE_LOOP('',(#194));
#61=EDGE_LOOP('',(#195,#196,#197,#198));
#62=EDGE_LOOP('',(#199));
#63=EDGE_LOOP('',(#200));
#64=EDGE_LOOP('',(#201));
#65=EDGE_LOOP('',(#202));
#66=EDGE_LOOP('',(#203,#204,#205,#206));
#67=EDGE_LOOP('',(#207,#208,#209,#210,#211));
#68=EDGE_LOOP('',(#212));
#69=EDGE_LOOP('',(#213,#214,#215,#216,#217));
#70=EDGE_LOOP('',(#218,#219,#220,#221));
#71=EDGE_LOOP('',(#222,#223,#224,#225));
#72=EDGE_LOOP('',(#226,#227,#228,#229));
#73=EDGE_LOOP('',(#230,#231,#232,#233));
#74=LINE('',#407,#87);
#75=LINE('',#415,#88);
#76=LINE('',#419,#89);
#77=LINE('',#427,#90);
#78=LINE('',#431,#91);
#79=LINE('',#438,#92);
#80=LINE('',#445,#93);
#81=LINE('',#450,#94);
#82=LINE('',#457,#95);
#83=LINE('',#462,#96);
#84=LINE('',#466,#97);
#85=LINE('',#470,#98);
#86=LINE('',#472,#99);
#87=VECTOR('',#317,5.375);
#88=VECTOR('',#328,5.5);
#89=VECTOR('',#333,5.375);
#90=VECTOR('',#342,4.45);
#91=VECTOR('',#347,4.7);
#92=VECTOR('',#356,3.89999989494681);
#93=VECTOR('',#367,4.7);
#94=VECTOR('',#372,3.97500000000011);
#95=VECTOR('',#381,4.225);
#96=VECTOR('',#388,4.225);
#97=VECTOR('',#393,3.825);
#98=VECTOR('',#398,3.425);
#99=VECTOR('',#401,3.825);
#100=CIRCLE('',#274,5.25);
#101=CIRCLE('',#275,5.5);
#102=CIRCLE('',#277,4.225);
#103=CIRCLE('',#279,5.5);
#104=CIRCLE('',#281,5.25);
#105=CIRCLE('',#283,4.7);
#106=CIRCLE('',#285,4.2);
#107=CIRCLE('',#286,4.7);
#108=CIRCLE('',#288,4.7);
#109=CIRCLE('',#291,3.89999989494681);
#110=CIRCLE('',#292,3.89999989494681);
#111=CIRCLE('',#294,4.7);
#112=CIRCLE('',#298,3.72500000000022);
#113=CIRCLE('',#299,4.225);
#114=CIRCLE('',#300,4.225);
#115=CIRCLE('',#303,4.225);
#116=CIRCLE('',#305,4.225);
#117=CIRCLE('',#307,3.425);
#118=CIRCLE('',#309,3.425);
#119=VERTEX_POINT('',#404);
#120=VERTEX_POINT('',#406);
#121=VERTEX_POINT('',#410);
#122=VERTEX_POINT('',#413);
#123=VERTEX_POINT('',#417);
#124=VERTEX_POINT('',#421);
#125=VERTEX_POINT('',#424);
#126=VERTEX_POINT('',#426);
#127=VERTEX_POINT('',#430);
#128=VERTEX_POINT('',#435);
#129=VERTEX_POINT('',#437);
#130=VERTEX_POINT('',#441);
#131=VERTEX_POINT('',#447);
#132=VERTEX_POINT('',#449);
#133=VERTEX_POINT('',#451);
#134=VERTEX_POINT('',#456);
#135=VERTEX_POINT('',#460);
#136=VERTEX_POINT('',#464);
#137=VERTEX_POINT('',#468);
#138=EDGE_CURVE('',#119,#119,#100,.T.);
#139=EDGE_CURVE('',#119,#120,#74,.T.);
#140=EDGE_CURVE('',#120,#120,#101,.T.);
#141=EDGE_CURVE('',#121,#121,#102,.T.);
#142=EDGE_CURVE('',#122,#122,#103,.T.);
#143=EDGE_CURVE('',#122,#120,#75,.T.);
#144=EDGE_CURVE('',#123,#123,#104,.T.);
#145=EDGE_CURVE('',#123,#122,#76,.T.);
#146=EDGE_CURVE('',#124,#124,#105,.T.);
#147=EDGE_CURVE('',#125,#125,#106,.T.);
#148=EDGE_CURVE('',#125,#126,#77,.T.);
#149=EDGE_CURVE('',#126,#126,#107,.T.);
#150=EDGE_CURVE('',#126,#127,#78,.T.);
#151=EDGE_CURVE('',#127,#127,#108,.T.);
#152=EDGE_CURVE('',#128,#128,#109,.T.);
#153=EDGE_CURVE('',#128,#129,#79,.T.);
#154=EDGE_CURVE('',#129,#129,#110,.T.);
#155=EDGE_CURVE('',#130,#130,#111,.T.);
#156=EDGE_CURVE('',#130,#124,#80,.T.);
#157=EDGE_CURVE('',#131,#131,#112,.T.);
#158=EDGE_CURVE('',#131,#132,#81,.T.);
#159=EDGE_CURVE('',#132,#133,#113,.T.);
#160=EDGE_CURVE('',#133,#132,#114,.T.);
#161=EDGE_CURVE('',#133,#134,#82,.T.);
#162=EDGE_CURVE('',#134,#134,#115,.T.);
#163=EDGE_CURVE('',#135,#135,#116,.T.);
#164=EDGE_CURVE('',#135,#121,#83,.T.);
#165=EDGE_CURVE('',#136,#136,#117,.T.);
#166=EDGE_CURVE('',#136,#135,#84,.T.);
#167=EDGE_CURVE('',#137,#137,#118,.T.);
#168=EDGE_CURVE('',#137,#136,#85,.T.);
#169=EDGE_CURVE('',#134,#137,#86,.T.);
#170=ORIENTED_EDGE('',*,*,#138,.T.);
#171=ORIENTED_EDGE('',*,*,#139,.T.);
#172=ORIENTED_EDGE('',*,*,#140,.T.);
#173=ORIENTED_EDGE('',*,*,#139,.F.);
#174=ORIENTED_EDGE('',*,*,#138,.F.);
#175=ORIENTED_EDGE('',*,*,#141,.F.);
#176=ORIENTED_EDGE('',*,*,#142,.F.);
#177=ORIENTED_EDGE('',*,*,#143,.T.);
#178=ORIENTED_EDGE('',*,*,#140,.F.);
#179=ORIENTED_EDGE('',*,*,#143,.F.);
#180=ORIENTED_EDGE('',*,*,#144,.T.);
#181=ORIENTED_EDGE('',*,*,#145,.T.);
#182=ORIENTED_EDGE('',*,*,#142,.T.);
#183=ORIENTED_EDGE('',*,*,#145,.F.);
#184=ORIENTED_EDGE('',*,*,#144,.F.);
#185=ORIENTED_EDGE('',*,*,#146,.F.);
#186=ORIENTED_EDGE('',*,*,#147,.T.);
#187=ORIENTED_EDGE('',*,*,#148,.T.);
#188=ORIENTED_EDGE('',*,*,#149,.T.);
#189=ORIENTED_EDGE('',*,*,#148,.F.);
#190=ORIENTED_EDGE('',*,*,#149,.F.);
#191=ORIENTED_EDGE('',*,*,#150,.T.);
#192=ORIENTED_EDGE('',*,*,#151,.T.);
#193=ORIENTED_EDGE('',*,*,#150,.F.);
#194=ORIENTED_EDGE('',*,*,#147,.F.);
#195=ORIENTED_EDGE('',*,*,#152,.T.);
#196=ORIENTED_EDGE('',*,*,#153,.T.);
#197=ORIENTED_EDGE('',*,*,#154,.T.);
#198=ORIENTED_EDGE('',*,*,#153,.F.);
#199=ORIENTED_EDGE('',*,*,#155,.F.);
#200=ORIENTED_EDGE('',*,*,#152,.F.);
#201=ORIENTED_EDGE('',*,*,#151,.F.);
#202=ORIENTED_EDGE('',*,*,#154,.F.);
#203=ORIENTED_EDGE('',*,*,#155,.T.);
#204=ORIENTED_EDGE('',*,*,#156,.T.);
#205=ORIENTED_EDGE('',*,*,#146,.T.);
#206=ORIENTED_EDGE('',*,*,#156,.F.);
#207=ORIENTED_EDGE('',*,*,#157,.T.);
#208=ORIENTED_EDGE('',*,*,#158,.T.);
#209=ORIENTED_EDGE('',*,*,#159,.T.);
#210=ORIENTED_EDGE('',*,*,#160,.T.);
#211=ORIENTED_EDGE('',*,*,#158,.F.);
#212=ORIENTED_EDGE('',*,*,#157,.F.);
#213=ORIENTED_EDGE('',*,*,#159,.F.);
#214=ORIENTED_EDGE('',*,*,#160,.F.);
#215=ORIENTED_EDGE('',*,*,#161,.T.);
#216=ORIENTED_EDGE('',*,*,#162,.T.);
#217=ORIENTED_EDGE('',*,*,#161,.F.);
#218=ORIENTED_EDGE('',*,*,#163,.F.);
#219=ORIENTED_EDGE('',*,*,#164,.T.);
#220=ORIENTED_EDGE('',*,*,#141,.T.);
#221=ORIENTED_EDGE('',*,*,#164,.F.);
#222=ORIENTED_EDGE('',*,*,#165,.F.);
#223=ORIENTED_EDGE('',*,*,#166,.T.);
#224=ORIENTED_EDGE('',*,*,#163,.T.);
#225=ORIENTED_EDGE('',*,*,#166,.F.);
#226=ORIENTED_EDGE('',*,*,#167,.F.);
#227=ORIENTED_EDGE('',*,*,#168,.T.);
#228=ORIENTED_EDGE('',*,*,#165,.T.);
#229=ORIENTED_EDGE('',*,*,#168,.F.);
#230=ORIENTED_EDGE('',*,*,#162,.F.);
#231=ORIENTED_EDGE('',*,*,#169,.T.);
#232=ORIENTED_EDGE('',*,*,#167,.T.);
#233=ORIENTED_EDGE('',*,*,#169,.F.);
#234=CONICAL_SURFACE('',#273,5.375,0.785398163397448);
#235=CONICAL_SURFACE('',#280,5.375,0.785398163397451);
#236=CONICAL_SURFACE('',#284,4.45,0.78539816339745);
#237=CONICAL_SURFACE('',#297,3.97500000000011,0.785398634879501);
#238=CONICAL_SURFACE('',#306,3.825,0.60780199611396);
#239=CONICAL_SURFACE('',#310,3.825,0.551654889572176);
#240=ADVANCED_FACE('',(#32),#234,.T.);
#241=ADVANCED_FACE('',(#33,#22),#26,.F.);
#242=ADVANCED_FACE('',(#34),#15,.T.);
#243=ADVANCED_FACE('',(#35),#235,.T.);
#244=ADVANCED_FACE('',(#36,#23),#27,.F.);
#245=ADVANCED_FACE('',(#37),#236,.T.);
#246=ADVANCED_FACE('',(#38),#16,.T.);
#247=ADVANCED_FACE('',(#39),#28,.F.);
#248=ADVANCED_FACE('',(#40),#17,.T.);
#249=ADVANCED_FACE('',(#41,#24),#29,.F.);
#250=ADVANCED_FACE('',(#42,#25),#30,.T.);
#251=ADVANCED_FACE('',(#43),#18,.T.);
#252=ADVANCED_FACE('',(#44),#237,.T.);
#253=ADVANCED_FACE('',(#45),#31,.T.);
#254=ADVANCED_FACE('',(#46),#19,.T.);
#255=ADVANCED_FACE('',(#47),#20,.T.);
#256=ADVANCED_FACE('',(#48),#238,.T.);
#257=ADVANCED_FACE('',(#49),#21,.T.);
#258=ADVANCED_FACE('',(#50),#239,.T.);
#259=CLOSED_SHELL('',(#240,#241,#242,#243,#244,#245,#246,#247,#248,#249,
#250,#251,#252,#253,#254,#255,#256,#257,#258));
#260=DERIVED_UNIT_ELEMENT(#262,1.);
#261=DERIVED_UNIT_ELEMENT(#478,-3.);
#262=(
MASS_UNIT()
NAMED_UNIT(*)
SI_UNIT(.KILO.,.GRAM.)
);
#263=DERIVED_UNIT((#260,#261));
#264=MEASURE_REPRESENTATION_ITEM('density measure',
POSITIVE_RATIO_MEASURE(7850.),#263);
#265=PROPERTY_DEFINITION_REPRESENTATION(#270,#267);
#266=PROPERTY_DEFINITION_REPRESENTATION(#271,#268);
#267=REPRESENTATION('material name',(#269),#475);
#268=REPRESENTATION('density',(#264),#475);
#269=DESCRIPTIVE_REPRESENTATION_ITEM('Steel','Steel');
#270=PROPERTY_DEFINITION('material property','material name',#485);
#271=PROPERTY_DEFINITION('material property','density of part',#485);
#272=AXIS2_PLACEMENT_3D('',#402,#311,#312);
#273=AXIS2_PLACEMENT_3D('',#403,#313,#314);
#274=AXIS2_PLACEMENT_3D('',#405,#315,#316);
#275=AXIS2_PLACEMENT_3D('',#408,#318,#319);
#276=AXIS2_PLACEMENT_3D('',#409,#320,#321);
#277=AXIS2_PLACEMENT_3D('',#411,#322,#323);
#278=AXIS2_PLACEMENT_3D('',#412,#324,#325);
#279=AXIS2_PLACEMENT_3D('',#414,#326,#327);
#280=AXIS2_PLACEMENT_3D('',#416,#329,#330);
#281=AXIS2_PLACEMENT_3D('',#418,#331,#332);
#282=AXIS2_PLACEMENT_3D('',#420,#334,#335);
#283=AXIS2_PLACEMENT_3D('',#422,#336,#337);
#284=AXIS2_PLACEMENT_3D('',#423,#338,#339);
#285=AXIS2_PLACEMENT_3D('',#425,#340,#341);
#286=AXIS2_PLACEMENT_3D('',#428,#343,#344);
#287=AXIS2_PLACEMENT_3D('',#429,#345,#346);
#288=AXIS2_PLACEMENT_3D('',#432,#348,#349);
#289=AXIS2_PLACEMENT_3D('',#433,#350,#351);
#290=AXIS2_PLACEMENT_3D('',#434,#352,#353);
#291=AXIS2_PLACEMENT_3D('',#436,#354,#355);
#292=AXIS2_PLACEMENT_3D('',#439,#357,#358);
#293=AXIS2_PLACEMENT_3D('',#440,#359,#360);
#294=AXIS2_PLACEMENT_3D('',#442,#361,#362);
#295=AXIS2_PLACEMENT_3D('',#443,#363,#364);
#296=AXIS2_PLACEMENT_3D('',#444,#365,#366);
#297=AXIS2_PLACEMENT_3D('',#446,#368,#369);
#298=AXIS2_PLACEMENT_3D('',#448,#370,#371);
#299=AXIS2_PLACEMENT_3D('',#452,#373,#374);
#300=AXIS2_PLACEMENT_3D('',#453,#375,#376);
#301=AXIS2_PLACEMENT_3D('',#454,#377,#378);
#302=AXIS2_PLACEMENT_3D('',#455,#379,#380);
#303=AXIS2_PLACEMENT_3D('',#458,#382,#383);
#304=AXIS2_PLACEMENT_3D('',#459,#384,#385);
#305=AXIS2_PLACEMENT_3D('',#461,#386,#387);
#306=AXIS2_PLACEMENT_3D('',#463,#389,#390);
#307=AXIS2_PLACEMENT_3D('',#465,#391,#392);
#308=AXIS2_PLACEMENT_3D('',#467,#394,#395);
#309=AXIS2_PLACEMENT_3D('',#469,#396,#397);
#310=AXIS2_PLACEMENT_3D('',#471,#399,#400);
#311=DIRECTION('axis',(0.,0.,1.));
#312=DIRECTION('refdir',(1.,0.,0.));
#313=DIRECTION('center_axis',(0.,0.,-1.));
#314=DIRECTION('ref_axis',(1.,0.,0.));
#315=DIRECTION('center_axis',(0.,0.,-1.));
#316=DIRECTION('ref_axis',(1.,0.,0.));
#317=DIRECTION('',(-0.707106781186547,-8.65956056235493E-17,-0.707106781186547));
#318=DIRECTION('center_axis',(0.,0.,1.));
#319=DIRECTION('ref_axis',(1.,0.,0.));
#320=DIRECTION('center_axis',(0.,0.,-1.));
#321=DIRECTION('ref_axis',(-1.,0.,0.));
#322=DIRECTION('center_axis',(0.,0.,1.));
#323=DIRECTION('ref_axis',(1.,0.,0.));
#324=DIRECTION('center_axis',(0.,0.,-1.));
#325=DIRECTION('ref_axis',(1.,0.,0.));
#326=DIRECTION('center_axis',(0.,0.,-1.));
#327=DIRECTION('ref_axis',(1.,0.,0.));
#328=DIRECTION('',(0.,0.,1.));
#329=DIRECTION('center_axis',(0.,0.,1.));
#330=DIRECTION('ref_axis',(1.,0.,0.));
#331=DIRECTION('center_axis',(0.,0.,1.));
#332=DIRECTION('ref_axis',(1.,0.,0.));
#333=DIRECTION('',(-0.707106781186549,8.65956056235495E-17,0.707106781186546));
#334=DIRECTION('center_axis',(0.,0.,1.));
#335=DIRECTION('ref_axis',(1.,0.,0.));
#336=DIRECTION('center_axis',(0.,0.,-1.));
#337=DIRECTION('ref_axis',(1.,0.,0.));
#338=DIRECTION('center_axis',(0.,0.,1.));
#339=DIRECTION('ref_axis',(1.,0.,0.));
#340=DIRECTION('center_axis',(0.,0.,1.));
#341=DIRECTION('ref_axis',(1.,0.,0.));
#342=DIRECTION('',(-0.707106781186549,8.65956056235495E-17,0.707106781186546));
#343=DIRECTION('center_axis',(0.,0.,-1.));
#344=DIRECTION('ref_axis',(1.,0.,0.));
#345=DIRECTION('center_axis',(0.,0.,-1.));
#346=DIRECTION('ref_axis',(1.,0.,0.));
#347=DIRECTION('',(0.,0.,1.));
#348=DIRECTION('center_axis',(0.,0.,-1.));
#349=DIRECTION('ref_axis',(1.,0.,0.));
#350=DIRECTION('center_axis',(0.,0.,1.));
#351=DIRECTION('ref_axis',(1.,0.,0.));
#352=DIRECTION('center_axis',(0.,0.,-1.));
#353=DIRECTION('ref_axis',(1.,0.,0.));
#354=DIRECTION('center_axis',(0.,0.,-1.));
#355=DIRECTION('ref_axis',(1.,0.,0.));
#356=DIRECTION('',(0.,0.,-1.));
#357=DIRECTION('center_axis',(0.,0.,1.));
#358=DIRECTION('ref_axis',(1.,0.,0.));
#359=DIRECTION('center_axis',(0.,0.,1.));
#360=DIRECTION('ref_axis',(1.,0.,0.));
#361=DIRECTION('center_axis',(0.,0.,1.));
#362=DIRECTION('ref_axis',(1.,0.,0.));
#363=DIRECTION('center_axis',(0.,0.,1.));
#364=DIRECTION('ref_axis',(1.,0.,0.));
#365=DIRECTION('center_axis',(0.,0.,-1.));
#366=DIRECTION('ref_axis',(1.,0.,0.));
#367=DIRECTION('',(0.,0.,1.));
#368=DIRECTION('center_axis',(0.,0.,-1.));
#369=DIRECTION('ref_axis',(-1.,0.,0.));
#370=DIRECTION('center_axis',(0.,0.,-1.));
#371=DIRECTION('ref_axis',(-1.,0.,0.));
#372=DIRECTION('',(0.707107114574626,8.65956464518136E-17,-0.707106447798312));
#373=DIRECTION('center_axis',(0.,0.,1.));
#374=DIRECTION('ref_axis',(-1.,0.,0.));
#375=DIRECTION('center_axis',(0.,0.,1.));
#376=DIRECTION('ref_axis',(-1.,0.,0.));
#377=DIRECTION('center_axis',(0.,0.,1.));
#378=DIRECTION('ref_axis',(1.,0.,0.));
#379=DIRECTION('center_axis',(0.,0.,1.));
#380=DIRECTION('ref_axis',(1.,0.,0.));
#381=DIRECTION('',(0.,0.,-1.));
#382=DIRECTION('center_axis',(0.,0.,1.));
#383=DIRECTION('ref_axis',(1.,0.,0.));
#384=DIRECTION('center_axis',(0.,0.,1.));
#385=DIRECTION('ref_axis',(1.,0.,0.));
#386=DIRECTION('center_axis',(0.,0.,1.));
#387=DIRECTION('ref_axis',(1.,0.,0.));
#388=DIRECTION('',(0.,0.,-1.));
#389=DIRECTION('center_axis',(0.,0.,-1.));
#390=DIRECTION('ref_axis',(1.,0.,0.));
#391=DIRECTION('center_axis',(0.,0.,1.));
#392=DIRECTION('ref_axis',(1.,0.,0.));
#393=DIRECTION('',(-0.5710644881986,-6.99352297579136E-17,-0.820905201785487));
#394=DIRECTION('center_axis',(0.,0.,1.));
#395=DIRECTION('ref_axis',(1.,0.,0.));
#396=DIRECTION('center_axis',(0.,0.,1.));
#397=DIRECTION('ref_axis',(1.,0.,0.));
#398=DIRECTION('',(0.,0.,-1.));
#399=DIRECTION('center_axis',(0.,0.,1.));
#400=DIRECTION('ref_axis',(1.,0.,0.));
#401=DIRECTION('',(0.524097346497266,6.41834137829498E-17,-0.851658365422735));
#402=CARTESIAN_POINT('',(0.,0.,0.));
#403=CARTESIAN_POINT('Origin',(0.,0.,3.42500016861595));
#404=CARTESIAN_POINT('',(-5.25,6.42939569552361E-16,3.55000016861595));
#405=CARTESIAN_POINT('Origin',(0.,0.,3.55000016861595));
#406=CARTESIAN_POINT('',(-5.5,-6.73555739531044E-16,3.30000016861595));
#407=CARTESIAN_POINT('',(-5.375,-6.58247654541702E-16,3.42500016861595));
#408=CARTESIAN_POINT('Origin',(0.,0.,3.30000016861595));
#409=CARTESIAN_POINT('Origin',(0.,0.,3.55000016861595));
#410=CARTESIAN_POINT('',(-4.225,-5.17413272639757E-16,3.55000016861595));
#411=CARTESIAN_POINT('Origin',(0.,0.,3.55000016861595));
#412=CARTESIAN_POINT('Origin',(0.,0.,0.));
#413=CARTESIAN_POINT('',(-5.5,6.73555739531044E-16,-11.75));
#414=CARTESIAN_POINT('Origin',(0.,0.,-11.75));
#415=CARTESIAN_POINT('',(-5.5,6.73555739531044E-16,0.));
#416=CARTESIAN_POINT('Origin',(0.,0.,-11.875));
#417=CARTESIAN_POINT('',(-5.25,-6.42939569552361E-16,-12.));
#418=CARTESIAN_POINT('Origin',(0.,0.,-12.));
#419=CARTESIAN_POINT('',(-5.375,6.58247654541702E-16,-11.875));
#420=CARTESIAN_POINT('Origin',(0.,0.,-12.));
#421=CARTESIAN_POINT('',(-4.7,5.75583995599256E-16,-12.));
#422=CARTESIAN_POINT('Origin',(0.,0.,-12.));
#423=CARTESIAN_POINT('Origin',(0.,0.,-57.75));
#424=CARTESIAN_POINT('',(-4.2,-5.14351655641888E-16,-58.));
#425=CARTESIAN_POINT('Origin',(0.,0.,-58.));
#426=CARTESIAN_POINT('',(-4.7,5.75583995599256E-16,-57.5));
#427=CARTESIAN_POINT('',(-4.45,5.44967825620572E-16,-57.75));
#428=CARTESIAN_POINT('Origin',(0.,0.,-57.5));
#429=CARTESIAN_POINT('Origin',(0.,0.,0.));
#430=CARTESIAN_POINT('',(-4.69999989494681,-5.75583982733951E-16,-56.));
#431=CARTESIAN_POINT('',(-4.7,5.75583995599256E-16,0.));
#432=CARTESIAN_POINT('Origin',(0.,0.,-56.));
#433=CARTESIAN_POINT('Origin',(0.,0.,-58.));
#434=CARTESIAN_POINT('Origin',(0.,0.,-55.));
#435=CARTESIAN_POINT('',(-3.89999989494681,-4.77612238802163E-16,-55.));
#436=CARTESIAN_POINT('Origin',(0.,0.,-55.));
#437=CARTESIAN_POINT('',(-3.89999989494681,-4.77612238802163E-16,-56.));
#438=CARTESIAN_POINT('',(-3.89999989494681,4.77612238802163E-16,-55.));
#439=CARTESIAN_POINT('Origin',(0.,0.,-56.));
#440=CARTESIAN_POINT('Origin',(0.,0.,-55.));
#441=CARTESIAN_POINT('',(-4.69999989494681,-5.75583982733951E-16,-55.));
#442=CARTESIAN_POINT('Origin',(0.,0.,-55.));
#443=CARTESIAN_POINT('Origin',(0.,0.,-56.));
#444=CARTESIAN_POINT('Origin',(0.,0.,0.));
#445=CARTESIAN_POINT('',(-4.7,5.75583995599256E-16,0.));
#446=CARTESIAN_POINT('Origin',(0.,0.,13.2999999328749));
#447=CARTESIAN_POINT('',(3.72500000000022,-4.56180932682416E-16,13.5499996971339));
#448=CARTESIAN_POINT('Origin',(0.,0.,13.5499996971339));
#449=CARTESIAN_POINT('',(4.225,5.17413272639757E-16,13.050000168616));
#450=CARTESIAN_POINT('',(3.97500000000011,4.86797102661086E-16,13.2999999328749));
#451=CARTESIAN_POINT('',(-4.225,-5.17413272639757E-16,13.050000168616));
#452=CARTESIAN_POINT('Origin',(0.,0.,13.050000168616));
#453=CARTESIAN_POINT('Origin',(0.,0.,13.050000168616));
#454=CARTESIAN_POINT('Origin',(0.,0.,13.5499996971339));
#455=CARTESIAN_POINT('Origin',(0.,0.,11.4000003039837));
#456=CARTESIAN_POINT('',(-4.225,-5.17413272639757E-16,9.25000043935142));
#457=CARTESIAN_POINT('',(-4.225,-5.17413272639757E-16,11.4000003039837));
#458=CARTESIAN_POINT('Origin',(0.,0.,9.25000043935142));
#459=CARTESIAN_POINT('Origin',(0.,0.,4.80000016861595));
#460=CARTESIAN_POINT('',(-4.225,-5.17413272639757E-16,6.05000016861595));
#461=CARTESIAN_POINT('Origin',(0.,0.,6.05000016861595));
#462=CARTESIAN_POINT('',(-4.225,-5.17413272639757E-16,4.80000016861595));
#463=CARTESIAN_POINT('Origin',(0.,0.,6.62500016861595));
#464=CARTESIAN_POINT('',(-3.425,-4.19441528707968E-16,7.20000016861595));
#465=CARTESIAN_POINT('Origin',(0.,0.,7.20000016861595));
#466=CARTESIAN_POINT('',(-3.825,-4.68427400673863E-16,6.62500016861595));
#467=CARTESIAN_POINT('Origin',(0.,0.,7.57500016861595));
#468=CARTESIAN_POINT('',(-3.425,-4.19441528707969E-16,7.95000016861595));
#469=CARTESIAN_POINT('Origin',(0.,0.,7.95000016861595));
#470=CARTESIAN_POINT('',(-3.425,-4.19441528707969E-16,7.57500016861595));
#471=CARTESIAN_POINT('Origin',(0.,0.,8.60000030398369));
#472=CARTESIAN_POINT('',(-3.825,-4.68427400673863E-16,8.60000030398369));
#473=UNCERTAINTY_MEASURE_WITH_UNIT(LENGTH_MEASURE(0.01),#477,
'DISTANCE_ACCURACY_VALUE',
'Maximum model space distance between geometric entities at asserted c
onnectivities');
#474=UNCERTAINTY_MEASURE_WITH_UNIT(LENGTH_MEASURE(0.01),#477,
'DISTANCE_ACCURACY_VALUE',
'Maximum model space distance between geometric entities at asserted c
onnectivities');
#475=(
GEOMETRIC_REPRESENTATION_CONTEXT(3)
GLOBAL_UNCERTAINTY_ASSIGNED_CONTEXT((#473))
GLOBAL_UNIT_ASSIGNED_CONTEXT((#477,#479,#480))
REPRESENTATION_CONTEXT('','3D')
);
#476=(
GEOMETRIC_REPRESENTATION_CONTEXT(3)
GLOBAL_UNCERTAINTY_ASSIGNED_CONTEXT((#474))
GLOBAL_UNIT_ASSIGNED_CONTEXT((#477,#479,#480))
REPRESENTATION_CONTEXT('','3D')
);
#477=(
LENGTH_UNIT()
NAMED_UNIT(*)
SI_UNIT(.MILLI.,.METRE.)
);
#478=(
LENGTH_UNIT()
NAMED_UNIT(*)
SI_UNIT($,.METRE.)
);
#479=(
NAMED_UNIT(*)
PLANE_ANGLE_UNIT()
SI_UNIT($,.RADIAN.)
);
#480=(
NAMED_UNIT(*)
SI_UNIT($,.STERADIAN.)
SOLID_ANGLE_UNIT()
);
#481=SHAPE_DEFINITION_REPRESENTATION(#482,#483);
#482=PRODUCT_DEFINITION_SHAPE('',$,#485);
#483=SHAPE_REPRESENTATION('',(#272),#475);
#484=PRODUCT_DEFINITION_CONTEXT('part definition',#489,'design');
#485=PRODUCT_DEFINITION('P360 Detachable Base',
'P360 Detachable Base v12',#486,#484);
#486=PRODUCT_DEFINITION_FORMATION('',$,#491);
#487=PRODUCT_RELATED_PRODUCT_CATEGORY('P360 Detachable Base v12',
'P360 Detachable Base v12',(#491));
#488=APPLICATION_PROTOCOL_DEFINITION('international standard',
'automotive_design',2009,#489);
#489=APPLICATION_CONTEXT(
'Core Data for Automotive Mechanical Design Process');
#490=PRODUCT_CONTEXT('part definition',#489,'mechanical');
#491=PRODUCT('P360 Detachable Base','P360 Detachable Base v12',$,(#490));
#492=PRESENTATION_STYLE_ASSIGNMENT((#494));
#493=PRESENTATION_STYLE_ASSIGNMENT((#495));
#494=SURFACE_STYLE_USAGE(.BOTH.,#496);
#495=SURFACE_STYLE_USAGE(.BOTH.,#497);
#496=SURFACE_SIDE_STYLE('',(#498));
#497=SURFACE_SIDE_STYLE('',(#499));
#498=SURFACE_STYLE_FILL_AREA(#500);
#499=SURFACE_STYLE_FILL_AREA(#501);
#500=FILL_AREA_STYLE('Steel - Satin',(#502));
#501=FILL_AREA_STYLE('Stainless Steel - Satin',(#503));
#502=FILL_AREA_STYLE_COLOUR('Steel - Satin',#504);
#503=FILL_AREA_STYLE_COLOUR('Stainless Steel - Satin',#505);
#504=COLOUR_RGB('Steel - Satin',0.627450980392157,0.627450980392157,0.627450980392157);
#505=COLOUR_RGB('Stainless Steel - Satin',0.796078431372549,0.796078431372549,
0.796078431372549);
ENDSEC;
END-ISO-10303-21;
