ISO-10303-21;
HEADER;
/* Generated by software containing ST-Developer
 * from STEP Tools, Inc. (www.steptools.com) 
 */

FILE_DESCRIPTION(
/* description */ (''),
/* implementation_level */ '2;1');

FILE_NAME(
/* name */ 'P360 Detachable Base final proto.step',
/* time_stamp */ '2026-06-10T20:15:17-04:00',
/* author */ (''),
/* organization */ (''),
/* preprocessor_version */ 'ST-DEVELOPER v20.1',
/* originating_system */ 'Autodesk Translation Framework v15.8.0.0',
/* authorisation */ '');

FILE_SCHEMA (('AUTOMOTIVE_DESIGN { 1 0 10303 214 3 1 1 }'));
ENDSEC;

DATA;
#10=MECHANICAL_DESIGN_GEOMETRIC_PRESENTATION_REPRESENTATION('',(#13),#546);
#11=SHAPE_REPRESENTATION_RELATIONSHIP('SRR','None',#553,#12);
#12=ADVANCED_BREP_SHAPE_REPRESENTATION('',(#14),#545);
#13=STYLED_ITEM('',(#563),#14);
#14=MANIFOLD_SOLID_BREP('Body3',#298);
#15=FACE_BOUND('',#60,.T.);
#16=FACE_BOUND('',#63,.T.);
#17=FACE_BOUND('',#66,.T.);
#18=FACE_BOUND('',#70,.T.);
#19=FACE_BOUND('',#72,.T.);
#20=PLANE('',#317);
#21=PLANE('',#322);
#22=PLANE('',#325);
#23=PLANE('',#331);
#24=PLANE('',#334);
#25=PLANE('',#337);
#26=PLANE('',#346);
#27=CYLINDRICAL_SURFACE('',#315,5.5);
#28=CYLINDRICAL_SURFACE('',#323,7.5);
#29=CYLINDRICAL_SURFACE('',#329,4.7);
#30=CYLINDRICAL_SURFACE('',#336,3.69999989494681);
#31=CYLINDRICAL_SURFACE('',#339,4.7);
#32=CYLINDRICAL_SURFACE('',#347,4.225);
#33=CYLINDRICAL_SURFACE('',#349,4.225);
#34=CYLINDRICAL_SURFACE('',#353,3.425);
#35=FACE_OUTER_BOUND('',#57,.T.);
#36=FACE_OUTER_BOUND('',#58,.T.);
#37=FACE_OUTER_BOUND('',#59,.T.);
#38=FACE_OUTER_BOUND('',#61,.T.);
#39=FACE_OUTER_BOUND('',#62,.T.);
#40=FACE_OUTER_BOUND('',#64,.T.);
#41=FACE_OUTER_BOUND('',#65,.T.);
#42=FACE_OUTER_BOUND('',#67,.T.);
#43=FACE_OUTER_BOUND('',#68,.T.);
#44=FACE_OUTER_BOUND('',#69,.T.);
#45=FACE_OUTER_BOUND('',#71,.T.);
#46=FACE_OUTER_BOUND('',#73,.T.);
#47=FACE_OUTER_BOUND('',#74,.T.);
#48=FACE_OUTER_BOUND('',#75,.T.);
#49=FACE_OUTER_BOUND('',#76,.T.);
#50=FACE_OUTER_BOUND('',#77,.T.);
#51=FACE_OUTER_BOUND('',#78,.T.);
#52=FACE_OUTER_BOUND('',#79,.T.);
#53=FACE_OUTER_BOUND('',#80,.T.);
#54=FACE_OUTER_BOUND('',#81,.T.);
#55=FACE_OUTER_BOUND('',#82,.T.);
#56=FACE_OUTER_BOUND('',#83,.T.);
#57=EDGE_LOOP('',(#195,#196,#197,#198));
#58=EDGE_LOOP('',(#199,#200,#201,#202));
#59=EDGE_LOOP('',(#203));
#60=EDGE_LOOP('',(#204));
#61=EDGE_LOOP('',(#205,#206,#207,#208));
#62=EDGE_LOOP('',(#209));
#63=EDGE_LOOP('',(#210));
#64=EDGE_LOOP('',(#211,#212,#213,#214));
#65=EDGE_LOOP('',(#215));
#66=EDGE_LOOP('',(#216));
#67=EDGE_LOOP('',(#217,#218,#219,#220));
#68=EDGE_LOOP('',(#221,#222,#223,#224));
#69=EDGE_LOOP('',(#225));
#70=EDGE_LOOP('',(#226));
#71=EDGE_LOOP('',(#227));
#72=EDGE_LOOP('',(#228));
#73=EDGE_LOOP('',(#229,#230,#231,#232));
#74=EDGE_LOOP('',(#233));
#75=EDGE_LOOP('',(#234,#235,#236,#237));
#76=EDGE_LOOP('',(#238,#239,#240,#241));
#77=EDGE_LOOP('',(#242,#243,#244,#245,#246));
#78=EDGE_LOOP('',(#247));
#79=EDGE_LOOP('',(#248,#249,#250,#251,#252));
#80=EDGE_LOOP('',(#253,#254,#255,#256));
#81=EDGE_LOOP('',(#257,#258,#259,#260));
#82=EDGE_LOOP('',(#261,#262,#263,#264));
#83=EDGE_LOOP('',(#265,#266,#267,#268));
#84=LINE('',#466,#99);
#85=LINE('',#470,#100);
#86=LINE('',#479,#101);
#87=LINE('',#485,#102);
#88=LINE('',#492,#103);
#89=LINE('',#496,#104);
#90=LINE('',#506,#105);
#91=LINE('',#513,#106);
#92=LINE('',#515,#107);
#93=LINE('',#520,#108);
#94=LINE('',#527,#109);
#95=LINE('',#532,#110);
#96=LINE('',#536,#111);
#97=LINE('',#540,#112);
#98=LINE('',#542,#113);
#99=VECTOR('',#362,5.375);
#100=VECTOR('',#367,5.5);
#101=VECTOR('',#378,7.375);
#102=VECTOR('',#387,7.5);
#103=VECTOR('',#396,7.25);
#104=VECTOR('',#401,4.7);
#105=VECTOR('',#414,3.69999989494681);
#106=VECTOR('',#423,4.7);
#107=VECTOR('',#426,4.45);
#108=VECTOR('',#431,3.97500000000011);
#109=VECTOR('',#440,4.225);
#110=VECTOR('',#447,4.225);
#111=VECTOR('',#452,3.825);
#112=VECTOR('',#457,3.425);
#113=VECTOR('',#460,3.825);
#114=CIRCLE('',#313,5.25);
#115=CIRCLE('',#314,5.5);
#116=CIRCLE('',#316,5.5);
#117=CIRCLE('',#318,4.7);
#118=CIRCLE('',#320,7.5);
#119=CIRCLE('',#321,7.25);
#120=CIRCLE('',#324,7.5);
#121=CIRCLE('',#326,7.);
#122=CIRCLE('',#327,4.225);
#123=CIRCLE('',#330,4.7);
#124=CIRCLE('',#332,4.7);
#125=CIRCLE('',#333,3.69999989494681);
#126=CIRCLE('',#335,3.69999989494681);
#127=CIRCLE('',#338,4.2);
#128=CIRCLE('',#340,4.7);
#129=CIRCLE('',#343,3.72500000000022);
#130=CIRCLE('',#344,4.225);
#131=CIRCLE('',#345,4.225);
#132=CIRCLE('',#348,4.225);
#133=CIRCLE('',#350,4.225);
#134=CIRCLE('',#352,3.425);
#135=CIRCLE('',#354,3.425);
#136=VERTEX_POINT('',#463);
#137=VERTEX_POINT('',#465);
#138=VERTEX_POINT('',#469);
#139=VERTEX_POINT('',#473);
#140=VERTEX_POINT('',#476);
#141=VERTEX_POINT('',#478);
#142=VERTEX_POINT('',#483);
#143=VERTEX_POINT('',#487);
#144=VERTEX_POINT('',#489);
#145=VERTEX_POINT('',#494);
#146=VERTEX_POINT('',#498);
#147=VERTEX_POINT('',#500);
#148=VERTEX_POINT('',#503);
#149=VERTEX_POINT('',#508);
#150=VERTEX_POINT('',#511);
#151=VERTEX_POINT('',#517);
#152=VERTEX_POINT('',#519);
#153=VERTEX_POINT('',#521);
#154=VERTEX_POINT('',#526);
#155=VERTEX_POINT('',#530);
#156=VERTEX_POINT('',#534);
#157=VERTEX_POINT('',#538);
#158=EDGE_CURVE('',#136,#136,#114,.T.);
#159=EDGE_CURVE('',#136,#137,#84,.T.);
#160=EDGE_CURVE('',#137,#137,#115,.T.);
#161=EDGE_CURVE('',#137,#138,#85,.T.);
#162=EDGE_CURVE('',#138,#138,#116,.T.);
#163=EDGE_CURVE('',#139,#139,#117,.T.);
#164=EDGE_CURVE('',#140,#140,#118,.T.);
#165=EDGE_CURVE('',#140,#141,#86,.T.);
#166=EDGE_CURVE('',#141,#141,#119,.T.);
#167=EDGE_CURVE('',#142,#142,#120,.T.);
#168=EDGE_CURVE('',#142,#140,#87,.T.);
#169=EDGE_CURVE('',#143,#143,#121,.T.);
#170=EDGE_CURVE('',#144,#144,#122,.T.);
#171=EDGE_CURVE('',#143,#142,#88,.T.);
#172=EDGE_CURVE('',#145,#145,#123,.T.);
#173=EDGE_CURVE('',#145,#139,#89,.T.);
#174=EDGE_CURVE('',#146,#146,#124,.T.);
#175=EDGE_CURVE('',#147,#147,#125,.T.);
#176=EDGE_CURVE('',#148,#148,#126,.T.);
#177=EDGE_CURVE('',#148,#147,#90,.T.);
#178=EDGE_CURVE('',#149,#149,#127,.T.);
#179=EDGE_CURVE('',#150,#150,#128,.T.);
#180=EDGE_CURVE('',#150,#146,#91,.T.);
#181=EDGE_CURVE('',#149,#150,#92,.T.);
#182=EDGE_CURVE('',#151,#151,#129,.T.);
#183=EDGE_CURVE('',#151,#152,#93,.T.);
#184=EDGE_CURVE('',#152,#153,#130,.T.);
#185=EDGE_CURVE('',#153,#152,#131,.T.);
#186=EDGE_CURVE('',#153,#154,#94,.T.);
#187=EDGE_CURVE('',#154,#154,#132,.T.);
#188=EDGE_CURVE('',#155,#155,#133,.T.);
#189=EDGE_CURVE('',#155,#144,#95,.T.);
#190=EDGE_CURVE('',#156,#156,#134,.T.);
#191=EDGE_CURVE('',#156,#155,#96,.T.);
#192=EDGE_CURVE('',#157,#157,#135,.T.);
#193=EDGE_CURVE('',#157,#156,#97,.T.);
#194=EDGE_CURVE('',#154,#157,#98,.T.);
#195=ORIENTED_EDGE('',*,*,#158,.T.);
#196=ORIENTED_EDGE('',*,*,#159,.T.);
#197=ORIENTED_EDGE('',*,*,#160,.T.);
#198=ORIENTED_EDGE('',*,*,#159,.F.);
#199=ORIENTED_EDGE('',*,*,#160,.F.);
#200=ORIENTED_EDGE('',*,*,#161,.T.);
#201=ORIENTED_EDGE('',*,*,#162,.F.);
#202=ORIENTED_EDGE('',*,*,#161,.F.);
#203=ORIENTED_EDGE('',*,*,#158,.F.);
#204=ORIENTED_EDGE('',*,*,#163,.F.);
#205=ORIENTED_EDGE('',*,*,#164,.T.);
#206=ORIENTED_EDGE('',*,*,#165,.T.);
#207=ORIENTED_EDGE('',*,*,#166,.T.);
#208=ORIENTED_EDGE('',*,*,#165,.F.);
#209=ORIENTED_EDGE('',*,*,#166,.F.);
#210=ORIENTED_EDGE('',*,*,#162,.T.);
#211=ORIENTED_EDGE('',*,*,#167,.F.);
#212=ORIENTED_EDGE('',*,*,#168,.T.);
#213=ORIENTED_EDGE('',*,*,#164,.F.);
#214=ORIENTED_EDGE('',*,*,#168,.F.);
#215=ORIENTED_EDGE('',*,*,#169,.F.);
#216=ORIENTED_EDGE('',*,*,#170,.F.);
#217=ORIENTED_EDGE('',*,*,#169,.T.);
#218=ORIENTED_EDGE('',*,*,#171,.T.);
#219=ORIENTED_EDGE('',*,*,#167,.T.);
#220=ORIENTED_EDGE('',*,*,#171,.F.);
#221=ORIENTED_EDGE('',*,*,#172,.T.);
#222=ORIENTED_EDGE('',*,*,#173,.T.);
#223=ORIENTED_EDGE('',*,*,#163,.T.);
#224=ORIENTED_EDGE('',*,*,#173,.F.);
#225=ORIENTED_EDGE('',*,*,#174,.F.);
#226=ORIENTED_EDGE('',*,*,#175,.F.);
#227=ORIENTED_EDGE('',*,*,#172,.F.);
#228=ORIENTED_EDGE('',*,*,#176,.F.);
#229=ORIENTED_EDGE('',*,*,#176,.T.);
#230=ORIENTED_EDGE('',*,*,#177,.T.);
#231=ORIENTED_EDGE('',*,*,#175,.T.);
#232=ORIENTED_EDGE('',*,*,#177,.F.);
#233=ORIENTED_EDGE('',*,*,#178,.F.);
#234=ORIENTED_EDGE('',*,*,#179,.F.);
#235=ORIENTED_EDGE('',*,*,#180,.T.);
#236=ORIENTED_EDGE('',*,*,#174,.T.);
#237=ORIENTED_EDGE('',*,*,#180,.F.);
#238=ORIENTED_EDGE('',*,*,#178,.T.);
#239=ORIENTED_EDGE('',*,*,#181,.T.);
#240=ORIENTED_EDGE('',*,*,#179,.T.);
#241=ORIENTED_EDGE('',*,*,#181,.F.);
#242=ORIENTED_EDGE('',*,*,#182,.T.);
#243=ORIENTED_EDGE('',*,*,#183,.T.);
#244=ORIENTED_EDGE('',*,*,#184,.T.);
#245=ORIENTED_EDGE('',*,*,#185,.T.);
#246=ORIENTED_EDGE('',*,*,#183,.F.);
#247=ORIENTED_EDGE('',*,*,#182,.F.);
#248=ORIENTED_EDGE('',*,*,#184,.F.);
#249=ORIENTED_EDGE('',*,*,#185,.F.);
#250=ORIENTED_EDGE('',*,*,#186,.T.);
#251=ORIENTED_EDGE('',*,*,#187,.T.);
#252=ORIENTED_EDGE('',*,*,#186,.F.);
#253=ORIENTED_EDGE('',*,*,#188,.F.);
#254=ORIENTED_EDGE('',*,*,#189,.T.);
#255=ORIENTED_EDGE('',*,*,#170,.T.);
#256=ORIENTED_EDGE('',*,*,#189,.F.);
#257=ORIENTED_EDGE('',*,*,#190,.F.);
#258=ORIENTED_EDGE('',*,*,#191,.T.);
#259=ORIENTED_EDGE('',*,*,#188,.T.);
#260=ORIENTED_EDGE('',*,*,#191,.F.);
#261=ORIENTED_EDGE('',*,*,#192,.F.);
#262=ORIENTED_EDGE('',*,*,#193,.T.);
#263=ORIENTED_EDGE('',*,*,#190,.T.);
#264=ORIENTED_EDGE('',*,*,#193,.F.);
#265=ORIENTED_EDGE('',*,*,#187,.F.);
#266=ORIENTED_EDGE('',*,*,#194,.T.);
#267=ORIENTED_EDGE('',*,*,#192,.T.);
#268=ORIENTED_EDGE('',*,*,#194,.F.);
#269=CONICAL_SURFACE('',#312,5.375,0.785398163397451);
#270=CONICAL_SURFACE('',#319,7.375,0.785398163397449);
#271=CONICAL_SURFACE('',#328,7.25,0.785398163397449);
#272=CONICAL_SURFACE('',#341,4.45,0.78539816339745);
#273=CONICAL_SURFACE('',#342,3.97500000000011,0.785398634879501);
#274=CONICAL_SURFACE('',#351,3.825,0.60780199611396);
#275=CONICAL_SURFACE('',#355,3.825,0.551654889572176);
#276=ADVANCED_FACE('',(#35),#269,.T.);
#277=ADVANCED_FACE('',(#36),#27,.T.);
#278=ADVANCED_FACE('',(#37,#15),#20,.F.);
#279=ADVANCED_FACE('',(#38),#270,.T.);
#280=ADVANCED_FACE('',(#39,#16),#21,.F.);
#281=ADVANCED_FACE('',(#40),#28,.T.);
#282=ADVANCED_FACE('',(#41,#17),#22,.T.);
#283=ADVANCED_FACE('',(#42),#271,.T.);
#284=ADVANCED_FACE('',(#43),#29,.T.);
#285=ADVANCED_FACE('',(#44,#18),#23,.T.);
#286=ADVANCED_FACE('',(#45,#19),#24,.F.);
#287=ADVANCED_FACE('',(#46),#30,.T.);
#288=ADVANCED_FACE('',(#47),#25,.F.);
#289=ADVANCED_FACE('',(#48),#31,.T.);
#290=ADVANCED_FACE('',(#49),#272,.T.);
#291=ADVANCED_FACE('',(#50),#273,.T.);
#292=ADVANCED_FACE('',(#51),#26,.T.);
#293=ADVANCED_FACE('',(#52),#32,.T.);
#294=ADVANCED_FACE('',(#53),#33,.T.);
#295=ADVANCED_FACE('',(#54),#274,.T.);
#296=ADVANCED_FACE('',(#55),#34,.T.);
#297=ADVANCED_FACE('',(#56),#275,.T.);
#298=CLOSED_SHELL('',(#276,#277,#278,#279,#280,#281,#282,#283,#284,#285,
#286,#287,#288,#289,#290,#291,#292,#293,#294,#295,#296,#297));
#299=DERIVED_UNIT_ELEMENT(#301,1.);
#300=DERIVED_UNIT_ELEMENT(#548,-3.);
#301=(
MASS_UNIT()
NAMED_UNIT(*)
SI_UNIT(.KILO.,.GRAM.)
);
#302=DERIVED_UNIT((#299,#300));
#303=MEASURE_REPRESENTATION_ITEM('density measure',
POSITIVE_RATIO_MEASURE(7850.),#302);
#304=PROPERTY_DEFINITION_REPRESENTATION(#309,#306);
#305=PROPERTY_DEFINITION_REPRESENTATION(#310,#307);
#306=REPRESENTATION('material name',(#308),#545);
#307=REPRESENTATION('density',(#303),#545);
#308=DESCRIPTIVE_REPRESENTATION_ITEM('Steel','Steel');
#309=PROPERTY_DEFINITION('material property','material name',#555);
#310=PROPERTY_DEFINITION('material property','density of part',#555);
#311=AXIS2_PLACEMENT_3D('',#461,#356,#357);
#312=AXIS2_PLACEMENT_3D('',#462,#358,#359);
#313=AXIS2_PLACEMENT_3D('',#464,#360,#361);
#314=AXIS2_PLACEMENT_3D('',#467,#363,#364);
#315=AXIS2_PLACEMENT_3D('',#468,#365,#366);
#316=AXIS2_PLACEMENT_3D('',#471,#368,#369);
#317=AXIS2_PLACEMENT_3D('',#472,#370,#371);
#318=AXIS2_PLACEMENT_3D('',#474,#372,#373);
#319=AXIS2_PLACEMENT_3D('',#475,#374,#375);
#320=AXIS2_PLACEMENT_3D('',#477,#376,#377);
#321=AXIS2_PLACEMENT_3D('',#480,#379,#380);
#322=AXIS2_PLACEMENT_3D('',#481,#381,#382);
#323=AXIS2_PLACEMENT_3D('',#482,#383,#384);
#324=AXIS2_PLACEMENT_3D('',#484,#385,#386);
#325=AXIS2_PLACEMENT_3D('',#486,#388,#389);
#326=AXIS2_PLACEMENT_3D('',#488,#390,#391);
#327=AXIS2_PLACEMENT_3D('',#490,#392,#393);
#328=AXIS2_PLACEMENT_3D('',#491,#394,#395);
#329=AXIS2_PLACEMENT_3D('',#493,#397,#398);
#330=AXIS2_PLACEMENT_3D('',#495,#399,#400);
#331=AXIS2_PLACEMENT_3D('',#497,#402,#403);
#332=AXIS2_PLACEMENT_3D('',#499,#404,#405);
#333=AXIS2_PLACEMENT_3D('',#501,#406,#407);
#334=AXIS2_PLACEMENT_3D('',#502,#408,#409);
#335=AXIS2_PLACEMENT_3D('',#504,#410,#411);
#336=AXIS2_PLACEMENT_3D('',#505,#412,#413);
#337=AXIS2_PLACEMENT_3D('',#507,#415,#416);
#338=AXIS2_PLACEMENT_3D('',#509,#417,#418);
#339=AXIS2_PLACEMENT_3D('',#510,#419,#420);
#340=AXIS2_PLACEMENT_3D('',#512,#421,#422);
#341=AXIS2_PLACEMENT_3D('',#514,#424,#425);
#342=AXIS2_PLACEMENT_3D('',#516,#427,#428);
#343=AXIS2_PLACEMENT_3D('',#518,#429,#430);
#344=AXIS2_PLACEMENT_3D('',#522,#432,#433);
#345=AXIS2_PLACEMENT_3D('',#523,#434,#435);
#346=AXIS2_PLACEMENT_3D('',#524,#436,#437);
#347=AXIS2_PLACEMENT_3D('',#525,#438,#439);
#348=AXIS2_PLACEMENT_3D('',#528,#441,#442);
#349=AXIS2_PLACEMENT_3D('',#529,#443,#444);
#350=AXIS2_PLACEMENT_3D('',#531,#445,#446);
#351=AXIS2_PLACEMENT_3D('',#533,#448,#449);
#352=AXIS2_PLACEMENT_3D('',#535,#450,#451);
#353=AXIS2_PLACEMENT_3D('',#537,#453,#454);
#354=AXIS2_PLACEMENT_3D('',#539,#455,#456);
#355=AXIS2_PLACEMENT_3D('',#541,#458,#459);
#356=DIRECTION('axis',(0.,0.,1.));
#357=DIRECTION('refdir',(1.,0.,0.));
#358=DIRECTION('center_axis',(0.,0.,1.));
#359=DIRECTION('ref_axis',(1.,0.,0.));
#360=DIRECTION('center_axis',(0.,0.,1.));
#361=DIRECTION('ref_axis',(1.,0.,0.));
#362=DIRECTION('',(-0.707106781186549,8.65956056235495E-17,0.707106781186546));
#363=DIRECTION('center_axis',(0.,0.,-1.));
#364=DIRECTION('ref_axis',(1.,0.,0.));
#365=DIRECTION('center_axis',(0.,0.,-1.));
#366=DIRECTION('ref_axis',(1.,0.,0.));
#367=DIRECTION('',(0.,0.,1.));
#368=DIRECTION('center_axis',(0.,0.,1.));
#369=DIRECTION('ref_axis',(1.,0.,0.));
#370=DIRECTION('center_axis',(0.,0.,1.));
#371=DIRECTION('ref_axis',(1.,0.,0.));
#372=DIRECTION('center_axis',(0.,0.,-1.));
#373=DIRECTION('ref_axis',(1.,0.,0.));
#374=DIRECTION('center_axis',(0.,0.,1.));
#375=DIRECTION('ref_axis',(1.,0.,0.));
#376=DIRECTION('center_axis',(0.,0.,-1.));
#377=DIRECTION('ref_axis',(1.,0.,0.));
#378=DIRECTION('',(0.707106781186548,8.65956056235494E-17,-0.707106781186547));
#379=DIRECTION('center_axis',(0.,0.,1.));
#380=DIRECTION('ref_axis',(1.,0.,0.));
#381=DIRECTION('center_axis',(0.,0.,1.));
#382=DIRECTION('ref_axis',(1.,0.,0.));
#383=DIRECTION('center_axis',(0.,0.,1.));
#384=DIRECTION('ref_axis',(1.,0.,0.));
#385=DIRECTION('center_axis',(0.,0.,1.));
#386=DIRECTION('ref_axis',(1.,0.,0.));
#387=DIRECTION('',(0.,0.,-1.));
#388=DIRECTION('center_axis',(0.,0.,1.));
#389=DIRECTION('ref_axis',(1.,0.,0.));
#390=DIRECTION('center_axis',(0.,0.,-1.));
#391=DIRECTION('ref_axis',(1.,0.,0.));
#392=DIRECTION('center_axis',(0.,0.,1.));
#393=DIRECTION('ref_axis',(1.,0.,0.));
#394=DIRECTION('center_axis',(0.,0.,-1.));
#395=DIRECTION('ref_axis',(1.,0.,0.));
#396=DIRECTION('',(-0.707106781186548,-8.65956056235494E-17,-0.707106781186547));
#397=DIRECTION('center_axis',(0.,0.,-1.));
#398=DIRECTION('ref_axis',(1.,0.,0.));
#399=DIRECTION('center_axis',(0.,0.,1.));
#400=DIRECTION('ref_axis',(1.,0.,0.));
#401=DIRECTION('',(0.,0.,1.));
#402=DIRECTION('center_axis',(0.,0.,1.));
#403=DIRECTION('ref_axis',(1.,0.,0.));
#404=DIRECTION('center_axis',(0.,0.,-1.));
#405=DIRECTION('ref_axis',(1.,0.,0.));
#406=DIRECTION('center_axis',(0.,0.,1.));
#407=DIRECTION('ref_axis',(1.,0.,0.));
#408=DIRECTION('center_axis',(0.,0.,1.));
#409=DIRECTION('ref_axis',(1.,0.,0.));
#410=DIRECTION('center_axis',(0.,0.,-1.));
#411=DIRECTION('ref_axis',(1.,0.,0.));
#412=DIRECTION('center_axis',(0.,0.,-1.));
#413=DIRECTION('ref_axis',(1.,0.,0.));
#414=DIRECTION('',(0.,0.,-1.));
#415=DIRECTION('center_axis',(0.,0.,1.));
#416=DIRECTION('ref_axis',(1.,0.,0.));
#417=DIRECTION('center_axis',(0.,0.,1.));
#418=DIRECTION('ref_axis',(1.,0.,0.));
#419=DIRECTION('center_axis',(0.,0.,-1.));
#420=DIRECTION('ref_axis',(1.,0.,0.));
#421=DIRECTION('center_axis',(0.,0.,-1.));
#422=DIRECTION('ref_axis',(1.,0.,0.));
#423=DIRECTION('',(0.,0.,1.));
#424=DIRECTION('center_axis',(0.,0.,1.));
#425=DIRECTION('ref_axis',(1.,0.,0.));
#426=DIRECTION('',(-0.707106781186549,8.65956056235495E-17,0.707106781186546));
#427=DIRECTION('center_axis',(0.,0.,-1.));
#428=DIRECTION('ref_axis',(-1.,0.,0.));
#429=DIRECTION('center_axis',(0.,0.,-1.));
#430=DIRECTION('ref_axis',(-1.,0.,0.));
#431=DIRECTION('',(0.707107114574626,8.65956464518136E-17,-0.707106447798312));
#432=DIRECTION('center_axis',(0.,0.,1.));
#433=DIRECTION('ref_axis',(-1.,0.,0.));
#434=DIRECTION('center_axis',(0.,0.,1.));
#435=DIRECTION('ref_axis',(-1.,0.,0.));
#436=DIRECTION('center_axis',(0.,0.,1.));
#437=DIRECTION('ref_axis',(1.,0.,0.));
#438=DIRECTION('center_axis',(0.,0.,1.));
#439=DIRECTION('ref_axis',(1.,0.,0.));
#440=DIRECTION('',(0.,0.,-1.));
#441=DIRECTION('center_axis',(0.,0.,1.));
#442=DIRECTION('ref_axis',(1.,0.,0.));
#443=DIRECTION('center_axis',(0.,0.,1.));
#444=DIRECTION('ref_axis',(1.,0.,0.));
#445=DIRECTION('center_axis',(0.,0.,1.));
#446=DIRECTION('ref_axis',(1.,0.,0.));
#447=DIRECTION('',(0.,0.,-1.));
#448=DIRECTION('center_axis',(0.,0.,-1.));
#449=DIRECTION('ref_axis',(1.,0.,0.));
#450=DIRECTION('center_axis',(0.,0.,1.));
#451=DIRECTION('ref_axis',(1.,0.,0.));
#452=DIRECTION('',(-0.5710644881986,-6.99352297579136E-17,-0.820905201785487));
#453=DIRECTION('center_axis',(0.,0.,1.));
#454=DIRECTION('ref_axis',(1.,0.,0.));
#455=DIRECTION('center_axis',(0.,0.,1.));
#456=DIRECTION('ref_axis',(1.,0.,0.));
#457=DIRECTION('',(0.,0.,-1.));
#458=DIRECTION('center_axis',(0.,0.,1.));
#459=DIRECTION('ref_axis',(1.,0.,0.));
#460=DIRECTION('',(0.524097346497266,6.41834137829498E-17,-0.851658365422735));
#461=CARTESIAN_POINT('',(0.,0.,0.));
#462=CARTESIAN_POINT('Origin',(0.,0.,-11.875));
#463=CARTESIAN_POINT('',(-5.25,-6.42939569552361E-16,-12.));
#464=CARTESIAN_POINT('Origin',(0.,0.,-12.));
#465=CARTESIAN_POINT('',(-5.5,6.73555739531044E-16,-11.75));
#466=CARTESIAN_POINT('',(-5.375,6.58247654541702E-16,-11.875));
#467=CARTESIAN_POINT('Origin',(0.,0.,-11.75));
#468=CARTESIAN_POINT('Origin',(0.,0.,0.));
#469=CARTESIAN_POINT('',(-5.5,-6.73555739531044E-16,0.5));
#470=CARTESIAN_POINT('',(-5.5,6.73555739531044E-16,0.));
#471=CARTESIAN_POINT('Origin',(0.,0.,0.5));
#472=CARTESIAN_POINT('Origin',(0.,0.,-12.));
#473=CARTESIAN_POINT('',(-4.7,5.75583995599256E-16,-12.));
#474=CARTESIAN_POINT('Origin',(0.,0.,-12.));
#475=CARTESIAN_POINT('Origin',(0.,0.,0.625));
#476=CARTESIAN_POINT('',(-7.5,9.18485099360515E-16,0.75));
#477=CARTESIAN_POINT('Origin',(0.,0.,0.75));
#478=CARTESIAN_POINT('',(-7.25,-8.87868929381831E-16,0.5));
#479=CARTESIAN_POINT('',(-7.375,-9.03177014371173E-16,0.625));
#480=CARTESIAN_POINT('Origin',(0.,0.,0.5));
#481=CARTESIAN_POINT('Origin',(0.,0.,0.5));
#482=CARTESIAN_POINT('Origin',(0.,0.,0.));
#483=CARTESIAN_POINT('',(-7.5,-9.18485099360515E-16,3.05));
#484=CARTESIAN_POINT('Origin',(0.,0.,3.05));
#485=CARTESIAN_POINT('',(-7.5,-9.18485099360515E-16,0.));
#486=CARTESIAN_POINT('Origin',(0.,0.,3.55));
#487=CARTESIAN_POINT('',(-7.,8.57252759403147E-16,3.55));
#488=CARTESIAN_POINT('Origin',(0.,0.,3.55));
#489=CARTESIAN_POINT('',(-4.225,-5.17413272639757E-16,3.55000016861595));
#490=CARTESIAN_POINT('Origin',(0.,0.,3.55000016861595));
#491=CARTESIAN_POINT('Origin',(0.,0.,3.3));
#492=CARTESIAN_POINT('',(-7.25,-8.87868929381831E-16,3.3));
#493=CARTESIAN_POINT('Origin',(0.,0.,0.));
#494=CARTESIAN_POINT('',(-4.69999989494681,-5.75583982733951E-16,-55.));
#495=CARTESIAN_POINT('Origin',(0.,0.,-55.));
#496=CARTESIAN_POINT('',(-4.7,5.75583995599256E-16,0.));
#497=CARTESIAN_POINT('Origin',(0.,0.,-56.));
#498=CARTESIAN_POINT('',(-4.69999989494681,-5.75583982733951E-16,-56.));
#499=CARTESIAN_POINT('Origin',(0.,0.,-56.));
#500=CARTESIAN_POINT('',(-3.69999989494681,-4.53119302819216E-16,-56.));
#501=CARTESIAN_POINT('Origin',(0.,0.,-56.));
#502=CARTESIAN_POINT('Origin',(0.,0.,-55.));
#503=CARTESIAN_POINT('',(-3.69999989494681,-4.53119302819216E-16,-55.));
#504=CARTESIAN_POINT('Origin',(0.,0.,-55.));
#505=CARTESIAN_POINT('Origin',(0.,0.,-55.));
#506=CARTESIAN_POINT('',(-3.69999989494681,4.53119302819216E-16,-55.));
#507=CARTESIAN_POINT('Origin',(0.,0.,-58.));
#508=CARTESIAN_POINT('',(-4.2,-5.14351655641888E-16,-58.));
#509=CARTESIAN_POINT('Origin',(0.,0.,-58.));
#510=CARTESIAN_POINT('Origin',(0.,0.,0.));
#511=CARTESIAN_POINT('',(-4.7,5.75583995599256E-16,-57.5));
#512=CARTESIAN_POINT('Origin',(0.,0.,-57.5));
#513=CARTESIAN_POINT('',(-4.7,5.75583995599256E-16,0.));
#514=CARTESIAN_POINT('Origin',(0.,0.,-57.75));
#515=CARTESIAN_POINT('',(-4.45,5.44967825620572E-16,-57.75));
#516=CARTESIAN_POINT('Origin',(0.,0.,13.2999999328749));
#517=CARTESIAN_POINT('',(3.72500000000022,-4.56180932682416E-16,13.5499996971339));
#518=CARTESIAN_POINT('Origin',(0.,0.,13.5499996971339));
#519=CARTESIAN_POINT('',(4.225,5.17413272639757E-16,13.050000168616));
#520=CARTESIAN_POINT('',(3.97500000000011,4.86797102661086E-16,13.2999999328749));
#521=CARTESIAN_POINT('',(-4.225,-5.17413272639757E-16,13.050000168616));
#522=CARTESIAN_POINT('Origin',(0.,0.,13.050000168616));
#523=CARTESIAN_POINT('Origin',(0.,0.,13.050000168616));
#524=CARTESIAN_POINT('Origin',(0.,0.,13.5499996971339));
#525=CARTESIAN_POINT('Origin',(0.,0.,11.4000003039837));
#526=CARTESIAN_POINT('',(-4.225,-5.17413272639757E-16,9.25000043935142));
#527=CARTESIAN_POINT('',(-4.225,-5.17413272639757E-16,11.4000003039837));
#528=CARTESIAN_POINT('Origin',(0.,0.,9.25000043935142));
#529=CARTESIAN_POINT('Origin',(0.,0.,4.80000016861595));
#530=CARTESIAN_POINT('',(-4.225,-5.17413272639757E-16,6.05000016861595));
#531=CARTESIAN_POINT('Origin',(0.,0.,6.05000016861595));
#532=CARTESIAN_POINT('',(-4.225,-5.17413272639757E-16,4.80000016861595));
#533=CARTESIAN_POINT('Origin',(0.,0.,6.62500016861595));
#534=CARTESIAN_POINT('',(-3.425,-4.19441528707968E-16,7.20000016861595));
#535=CARTESIAN_POINT('Origin',(0.,0.,7.20000016861595));
#536=CARTESIAN_POINT('',(-3.825,-4.68427400673863E-16,6.62500016861595));
#537=CARTESIAN_POINT('Origin',(0.,0.,7.57500016861595));
#538=CARTESIAN_POINT('',(-3.425,-4.19441528707969E-16,7.95000016861595));
#539=CARTESIAN_POINT('Origin',(0.,0.,7.95000016861595));
#540=CARTESIAN_POINT('',(-3.425,-4.19441528707969E-16,7.57500016861595));
#541=CARTESIAN_POINT('Origin',(0.,0.,8.60000030398369));
#542=CARTESIAN_POINT('',(-3.825,-4.68427400673863E-16,8.60000030398369));
#543=UNCERTAINTY_MEASURE_WITH_UNIT(LENGTH_MEASURE(0.01),#547,
'DISTANCE_ACCURACY_VALUE',
'Maximum model space distance between geometric entities at asserted c
onnectivities');
#544=UNCERTAINTY_MEASURE_WITH_UNIT(LENGTH_MEASURE(0.01),#547,
'DISTANCE_ACCURACY_VALUE',
'Maximum model space distance between geometric entities at asserted c
onnectivities');
#545=(
GEOMETRIC_REPRESENTATION_CONTEXT(3)
GLOBAL_UNCERTAINTY_ASSIGNED_CONTEXT((#543))
GLOBAL_UNIT_ASSIGNED_CONTEXT((#547,#549,#550))
REPRESENTATION_CONTEXT('','3D')
);
#546=(
GEOMETRIC_REPRESENTATION_CONTEXT(3)
GLOBAL_UNCERTAINTY_ASSIGNED_CONTEXT((#544))
GLOBAL_UNIT_ASSIGNED_CONTEXT((#547,#549,#550))
REPRESENTATION_CONTEXT('','3D')
);
#547=(
LENGTH_UNIT()
NAMED_UNIT(*)
SI_UNIT(.MILLI.,.METRE.)
);
#548=(
LENGTH_UNIT()
NAMED_UNIT(*)
SI_UNIT($,.METRE.)
);
#549=(
NAMED_UNIT(*)
PLANE_ANGLE_UNIT()
SI_UNIT($,.RADIAN.)
);
#550=(
NAMED_UNIT(*)
SI_UNIT($,.STERADIAN.)
SOLID_ANGLE_UNIT()
);
#551=SHAPE_DEFINITION_REPRESENTATION(#552,#553);
#552=PRODUCT_DEFINITION_SHAPE('',$,#555);
#553=SHAPE_REPRESENTATION('',(#311),#545);
#554=PRODUCT_DEFINITION_CONTEXT('part definition',#559,'design');
#555=PRODUCT_DEFINITION('P360 Detachable Base',
'P360 Detachable Base v8',#556,#554);
#556=PRODUCT_DEFINITION_FORMATION('',$,#561);
#557=PRODUCT_RELATED_PRODUCT_CATEGORY('P360 Detachable Base v8',
'P360 Detachable Base v8',(#561));
#558=APPLICATION_PROTOCOL_DEFINITION('international standard',
'automotive_design',2009,#559);
#559=APPLICATION_CONTEXT(
'Core Data for Automotive Mechanical Design Process');
#560=PRODUCT_CONTEXT('part definition',#559,'mechanical');
#561=PRODUCT('P360 Detachable Base','P360 Detachable Base v8',$,(#560));
#562=PRESENTATION_STYLE_ASSIGNMENT((#564));
#563=PRESENTATION_STYLE_ASSIGNMENT((#565));
#564=SURFACE_STYLE_USAGE(.BOTH.,#566);
#565=SURFACE_STYLE_USAGE(.BOTH.,#567);
#566=SURFACE_SIDE_STYLE('',(#568));
#567=SURFACE_SIDE_STYLE('',(#569));
#568=SURFACE_STYLE_FILL_AREA(#570);
#569=SURFACE_STYLE_FILL_AREA(#571);
#570=FILL_AREA_STYLE('Steel - Satin',(#572));
#571=FILL_AREA_STYLE('Stainless Steel - Satin',(#573));
#572=FILL_AREA_STYLE_COLOUR('Steel - Satin',#574);
#573=FILL_AREA_STYLE_COLOUR('Stainless Steel - Satin',#575);
#574=COLOUR_RGB('Steel - Satin',0.627450980392157,0.627450980392157,0.627450980392157);
#575=COLOUR_RGB('Stainless Steel - Satin',0.796078431372549,0.796078431372549,
0.796078431372549);
ENDSEC;
END-ISO-10303-21;
